PathFileType	4	(x/y/z)	TRC_MarkerData\Calibration\Standing_Cal_SL_Passive0001.trc
DataRate	CameraRate	NumFrames	NumMarkers	Units	OrigDataRate	OrigDataStartFrame	OrigNumFrames
240	240	9	50	mm	240	601	2400
Frame#	Time	R_AC			L_AC			HEAD			STERN			C7			L_IC			R_IC			L_ASIS			R_ASIS			L_GT			R_GT			L_PSIS			R_PSIS			SACRAL			L_LAT_KNEE			L_MED_KNEE			R_LAT_KNEE			R_MED_KNEE			L_LAT_ANK			L_MED_ANK			R_LAT_ANK			R_MED_ANK			L_THIGH_PROX_POST			L_THIGH_PROX_ANT			L_THIGH_DIST_ANT			L_THIGH_DIST_POST			R_THIGH_PROX_POST			R_THIGH_PROX_ANT			R_THIGH_DIST_ANT			R_THIGH_DIST_POST			L_SHANK_PROX_POST			L_SHANK_PROX_ANT			L_SHANK_DIST_ANT			L_SHANK_DIST_POST			R_SHANK_PROX_POST			R_SHANK_PROX_ANT			R_SHANK_DIST_ANT			R_SHANK_DIST_POST			L_HEEL_LAT			L_HEEL_SUP			L_HEEL_MED			R_HEEL_LAT			R_HEEL_SUP			R_HEEL_MED			L_1ST_MET			L_5TH_MET			L_TOE			R_1ST_MET			R_5TH_MET			R_TOE			
		X1	Y1	Z1	X2	Y2	Z2	X3	Y3	Z3	X4	Y4	Z4	X5	Y5	Z5	X6	Y6	Z6	X7	Y7	Z7	X8	Y8	Z8	X9	Y9	Z9	X10	Y10	Z10	X11	Y11	Z11	X12	Y12	Z12	X13	Y13	Z13	X14	Y14	Z14	X15	Y15	Z15	X16	Y16	Z16	X17	Y17	Z17	X18	Y18	Z18	X19	Y19	Z19	X20	Y20	Z20	X21	Y21	Z21	X22	Y22	Z22	X23	Y23	Z23	X24	Y24	Z24	X25	Y25	Z25	X26	Y26	Z26	X27	Y27	Z27	X28	Y28	Z28	X29	Y29	Z29	X30	Y30	Z30	X31	Y31	Z31	X32	Y32	Z32	X33	Y33	Z33	X34	Y34	Z34	X35	Y35	Z35	X36	Y36	Z36	X37	Y37	Z37	X38	Y38	Z38	X39	Y39	Z39	X40	Y40	Z40	X41	Y41	Z41	X42	Y42	Z42	X43	Y43	Z43	X44	Y44	Z44	X45	Y45	Z45	X46	Y46	Z46	X47	Y47	Z47	X48	Y48	Z48	X49	Y49	Z49	X50	Y50	Z50	

601	2.501	564.65	1581.8	477.29	567.68	1606.5	176.36	689.02	1855.5	340.55	691.56	1530.1	331.85	543.81	1599.4	330.25	611.6	1133.4	148.21	625	1122.3	488.03	681.51	1055.6	175.58	686.14	1038.1	448.13	584.15	983.78	123.19	593.63	971.82	496.33	478.34	1077.3	270.26	489.55	1072.2	376.92	467.92	1053.6	325.19	585.16	573.6	123.18	610.04	568.06	258.03	536.21	559.98	496.47	561.48	541.06	372.21	491.38	129.69	105.48	493.99	127.51	183.78	468.48	96.98	484.5	503.26	115.79	390.45	552.17	831.53	128.54	615.99	822.2	115.86	612.34	746.32	121.29	549.61	757.08	134.3	551.17	808.09	501.96	617.57	801.06	510.76	603.95	727.58	506.55	536.75	734.26	496.13	587.83	519.15	126.23	631.66	529.39	136.93	628.03	479.17	138.75	578.42	465.42	127.6	437.35	409.32	487.25	501.93	415.83	515.99	505.54	341.41	513.17	441.55	332.81	486.4	426.81	54.449	104.98	418.24	77.971	141.97	428.49	44.766	171.83	409.38	40.995	452.4	405.98	66.773	415.93	426.33	39.739	386.85	655.31	48.109	185.84	633.11	48.015	82.236	706.2	57.85	160.76	655.13	49.019	428.28	605.63	32.663	529.93	690.29	53.927	484.86
602	2.5052	564.6	1581.8	477.3	567.66	1606.5	176.39	688.98	1855.5	340.6	691.53	1530.1	331.89	543.79	1599.4	330.28	611.59	1133.4	148.21	624.99	1122.3	488.03	681.5	1055.6	175.58	686.13	1038.1	448.12	584.14	983.79	123.18	593.62	971.81	496.32	478.33	1077.3	270.25	489.54	1072.2	376.92	467.91	1053.6	325.19	585.24	573.59	123.2	610.04	568.06	258.03	536.2	559.99	496.46	561.48	541.06	372.2	491.38	129.69	105.47	493.99	127.51	183.77	468.48	96.98	484.49	503.28	115.79	390.45	552.16	831.53	128.53	615.99	822.2	115.85	612.33	746.32	121.29	549.61	757.09	134.29	551.16	808.09	501.95	617.55	801.07	510.75	603.94	727.58	506.54	536.74	734.26	496.12	587.83	519.15	126.23	631.66	529.4	136.93	628.03	479.17	138.74	578.42	465.42	127.59	437.34	409.32	487.24	501.92	415.83	515.98	505.54	341.41	513.15	441.54	332.81	486.39	426.81	54.451	104.97	418.24	77.971	141.98	428.49	44.769	171.83	409.38	40.997	452.39	405.99	66.774	415.93	426.33	39.74	386.85	655.31	48.109	185.84	633.11	48.015	82.236	706.2	57.849	160.75	655.14	49.017	428.28	605.63	32.663	529.93	690.29	53.925	484.86
603	2.5094	564.56	1581.8	477.31	567.64	1606.6	176.41	688.94	1855.5	340.65	691.51	1530.1	331.92	543.76	1599.4	330.3	611.59	1133.5	148.2	624.98	1122.3	488.03	681.5	1055.6	175.58	686.12	1038.1	448.11	584.14	983.79	123.18	593.61	971.81	496.31	478.33	1077.3	270.25	489.53	1072.2	376.91	467.9	1053.6	325.18	585.32	573.57	123.22	610.05	568.07	258.02	536.19	559.99	496.45	561.48	541.06	372.2	491.39	129.7	105.47	494	127.51	183.77	468.48	96.98	484.49	503.29	115.79	390.45	552.16	831.53	128.52	615.99	822.21	115.85	612.33	746.33	121.28	549.61	757.09	134.28	551.15	808.09	501.93	617.54	801.07	510.73	603.93	727.58	506.53	536.73	734.27	496.11	587.83	519.15	126.22	631.65	529.4	136.92	628.03	479.18	138.74	578.42	465.42	127.58	437.33	409.32	487.23	501.92	415.84	515.97	505.53	341.41	513.15	441.54	332.81	486.38	426.81	54.453	104.97	418.24	77.973	141.98	428.49	44.771	171.83	409.38	40.999	452.39	405.99	66.775	415.93	426.33	39.741	386.85	655.31	48.11	185.84	633.11	48.014	82.236	706.2	57.848	160.75	655.14	49.015	428.28	605.63	32.662	529.94	690.29	53.924	484.86
604	2.5135	564.52	1581.8	477.32	567.62	1606.6	176.44	688.9	1855.5	340.7	691.49	1530.1	331.95	543.73	1599.4	330.33	611.58	1133.5	148.2	624.97	1122.3	488.04	681.49	1055.6	175.58	686.11	1038.1	448.11	584.14	983.8	123.17	593.6	971.81	496.31	478.32	1077.3	270.24	489.52	1072.2	376.91	467.89	1053.6	325.17	585.41	573.54	123.24	610.05	568.07	258.02	536.18	559.99	496.44	561.48	541.06	372.19	491.39	129.7	105.47	494	127.52	183.77	468.48	96.981	484.49	503.29	115.79	390.45	552.16	831.53	128.52	615.99	822.21	115.84	612.33	746.33	121.28	549.6	757.09	134.28	551.14	808.09	501.92	617.53	801.07	510.72	603.92	727.58	506.52	536.72	734.27	496.1	587.83	519.15	126.22	631.65	529.41	136.92	628.03	479.18	138.73	578.42	465.43	127.58	437.33	409.32	487.21	501.91	415.84	515.96	505.52	341.41	513.14	441.53	332.82	486.37	426.82	54.455	104.97	418.24	77.975	141.98	428.5	44.773	171.83	409.38	41.001	452.39	405.99	66.776	415.93	426.33	39.742	386.85	655.31	48.111	185.84	633.11	48.014	82.236	706.2	57.847	160.75	655.14	49.013	428.28	605.63	32.662	529.94	690.29	53.921	484.86
605	2.5177	564.48	1581.8	477.34	567.6	1606.6	176.46	688.87	1855.5	340.75	691.46	1530.1	331.99	543.71	1599.4	330.36	611.58	1133.5	148.2	624.96	1122.3	488.04	681.48	1055.6	175.58	686.1	1038.1	448.1	584.13	983.8	123.17	593.59	971.82	496.3	478.31	1077.3	270.24	489.51	1072.2	376.9	467.88	1053.6	325.16	585.5	573.52	123.26	610.05	568.07	258.01	536.17	559.99	496.43	561.48	541.06	372.18	491.39	129.71	105.47	494	127.52	183.77	468.48	96.982	484.49	503.3	115.79	390.45	552.15	831.54	128.51	615.99	822.22	115.84	612.33	746.34	121.27	549.6	757.1	134.27	551.13	808.09	501.91	617.52	801.08	510.71	603.91	727.58	506.51	536.71	734.27	496.09	587.84	519.16	126.22	631.65	529.41	136.91	628.04	479.18	138.73	578.42	465.43	127.58	437.32	409.32	487.2	501.9	415.85	515.96	505.52	341.41	513.13	441.53	332.82	486.36	426.82	54.457	104.97	418.24	77.978	141.98	428.5	44.776	171.83	409.38	41.004	452.39	405.99	66.777	415.93	426.34	39.744	386.85	655.31	48.111	185.84	633.11	48.013	82.236	706.2	57.847	160.75	655.14	49.011	428.29	605.63	32.661	529.94	690.29	53.919	484.86
606	2.5219	564.43	1581.8	477.35	567.58	1606.6	176.48	688.83	1855.5	340.8	691.44	1530.1	332.03	543.68	1599.4	330.38	611.57	1133.5	148.2	624.95	1122.3	488.04	681.48	1055.6	175.58	686.09	1038.1	448.1	584.13	983.81	123.17	593.58	971.82	496.3	478.3	1077.3	270.23	489.49	1072.2	376.89	467.87	1053.6	325.16	585.6	573.5	123.29	610.05	568.08	258.01	536.16	560	496.42	561.48	541.07	372.18	491.39	129.71	105.46	494	127.52	183.77	468.48	96.983	484.49	503.29	115.79	390.45	552.15	831.54	128.51	615.98	822.22	115.83	612.33	746.34	121.27	549.6	757.1	134.27	551.12	808.09	501.9	617.51	801.08	510.71	603.91	727.59	506.5	536.7	734.28	496.09	587.84	519.16	126.22	631.65	529.42	136.91	628.04	479.18	138.73	578.42	465.43	127.57	437.32	409.32	487.19	501.9	415.85	515.95	505.51	341.42	513.13	441.53	332.82	486.35	426.82	54.459	104.97	418.25	77.981	141.98	428.5	44.778	171.83	409.38	41.007	452.38	405.99	66.779	415.93	426.34	39.746	386.85	655.31	48.112	185.84	633.11	48.013	82.236	706.2	57.846	160.75	655.14	49.01	428.29	605.64	32.66	529.94	690.29	53.916	484.87
607	2.5261	564.39	1581.8	477.37	567.56	1606.6	176.49	688.8	1855.5	340.85	691.42	1530.1	332.06	543.65	1599.4	330.41	611.57	1133.6	148.2	624.94	1122.3	488.05	681.47	1055.6	175.58	686.08	1038.1	448.09	584.12	983.81	123.16	593.56	971.82	496.29	478.3	1077.3	270.22	489.48	1072.2	376.89	467.86	1053.6	325.15	585.7	573.47	123.32	610.04	568.08	258.01	536.16	560	496.42	561.48	541.07	372.18	491.39	129.71	105.46	494.01	127.52	183.77	468.49	96.984	484.49	503.28	115.79	390.45	552.15	831.54	128.5	615.98	822.23	115.83	612.33	746.35	121.27	549.6	757.1	134.26	551.11	808.09	501.89	617.51	801.09	510.7	603.9	727.59	506.49	536.7	734.28	496.08	587.84	519.16	126.21	631.65	529.42	136.9	628.04	479.18	138.73	578.42	465.44	127.57	437.32	409.32	487.18	501.89	415.86	515.94	505.51	341.42	513.12	441.52	332.82	486.34	426.82	54.462	104.97	418.25	77.984	141.97	428.5	44.78	171.83	409.39	41.01	452.38	405.99	66.781	415.92	426.34	39.748	386.84	655.31	48.113	185.84	633.11	48.013	82.236	706.21	57.846	160.76	655.14	49.008	428.29	605.64	32.659	529.94	690.3	53.913	484.87
608	2.5302	564.36	1581.8	477.38	567.55	1606.6	176.5	688.77	1855.5	340.89	691.39	1530.1	332.1	543.63	1599.4	330.44	611.57	1133.6	148.2	624.93	1122.3	488.05	681.46	1055.6	175.58	686.07	1038.1	448.09	584.12	983.82	123.16	593.55	971.82	496.29	478.29	1077.3	270.22	489.47	1072.2	376.88	467.85	1053.6	325.14	585.79	573.45	123.35	610.04	568.08	258.01	536.15	560.01	496.41	561.49	541.07	372.17	491.39	129.72	105.46	494.01	127.52	183.77	468.49	96.986	484.49	503.27	115.78	390.44	552.14	831.54	128.5	615.98	822.24	115.83	612.33	746.35	121.27	549.6	757.11	134.26	551.1	808.09	501.89	617.5	801.09	510.69	603.89	727.59	506.48	536.69	734.29	496.08	587.84	519.16	126.21	631.64	529.43	136.9	628.04	479.19	138.72	578.42	465.44	127.57	437.31	409.32	487.17	501.89	415.86	515.94	505.51	341.43	513.12	441.52	332.83	486.33	426.82	54.465	104.97	418.25	77.989	141.97	428.5	44.782	171.83	409.39	41.013	452.38	406	66.782	415.92	426.34	39.75	386.84	655.31	48.113	185.84	633.11	48.014	82.236	706.21	57.846	160.76	655.15	49.006	428.29	605.64	32.658	529.94	690.3	53.91	484.87
609	2.5344	564.32	1581.8	477.39	567.53	1606.6	176.51	688.75	1855.5	340.94	691.37	1530.2	332.13	543.6	1599.4	330.47	611.57	1133.6	148.2	624.92	1122.3	488.05	681.46	1055.7	175.58	686.06	1038.1	448.09	584.11	983.82	123.16	593.54	971.82	496.29	478.28	1077.3	270.21	489.46	1072.2	376.88	467.84	1053.6	325.13	585.88	573.43	123.37	610.03	568.08	258.01	536.15	560.01	496.41	561.49	541.07	372.17	491.4	129.72	105.46	494.01	127.52	183.78	468.49	96.987	484.49	503.25	115.77	390.44	552.14	831.55	128.5	615.98	822.25	115.83	612.33	746.36	121.27	549.6	757.11	134.26	551.09	808.1	501.88	617.49	801.1	510.69	603.88	727.6	506.48	536.69	734.29	496.08	587.84	519.16	126.21	631.64	529.43	136.9	628.04	479.19	138.72	578.42	465.45	127.57	437.31	409.32	487.16	501.88	415.87	515.93	505.5	341.43	513.12	441.52	332.83	486.32	426.82	54.468	104.97	418.25	77.993	141.97	428.51	44.783	171.83	409.39	41.015	452.38	405.99	66.784	415.91	426.34	39.752	386.84	655.32	48.114	185.84	633.12	48.015	82.236	706.21	57.846	160.77	655.15	49.005	428.29	605.64	32.657	529.94	690.3	53.906	484.87
